<mxfile host="app.diagrams.net" modified="2023-10-25T05:51:34.676Z" agent="Mozilla/5.0 (X11; Linux x86_64) AppleWebKit/537.36 (KHTML, like Gecko) Chrome/118.0.0.0 Safari/537.36" version="22.0.7" etag="K8_NOQJQYo0jwcJVnHtk" type="github">
  <diagram name="Page-1" id="NoK98bbF8Lhfb8ckduOg">
    <mxGraphModel>
      <root>
        <mxCell id="0" />
        <mxCell id="1" parent="0" />
      </root>
    </mxGraphModel>
  </diagram>
</mxfile>
